<mxfile host="Electron" modified="2024-05-27T21:57:01.543Z" agent="Mozilla/5.0 (X11; Linux x86_64) AppleWebKit/537.36 (KHTML, like Gecko) draw.io/24.4.8 Chrome/124.0.6367.207 Electron/30.0.6 Safari/537.36" etag="0rI_o6t9GtuFdmr0nvgH" version="24.4.8" type="device">
  <diagram name="Page-1" id="2wCjeB2BCqXbrsJG6yFQ">
    <mxGraphModel dx="545" dy="385" grid="1" gridSize="10" guides="1" tooltips="1" connect="1" arrows="1" fold="1" page="1" pageScale="1" pageWidth="850" pageHeight="1100" math="1" shadow="0">
      <root>
        <mxCell id="0" />
        <mxCell id="1" parent="0" />
        <mxCell id="q5q8uRjG3jJ6PqbUAPb0-5" value="" style="rounded=1;whiteSpace=wrap;html=1;rotation=-30;fillColor=#2F405F;" parent="1" vertex="1">
          <mxGeometry x="320" y="350" width="80" height="20" as="geometry" />
        </mxCell>
        <mxCell id="q5q8uRjG3jJ6PqbUAPb0-1" value="" style="endArrow=classic;html=1;rounded=0;" parent="1" edge="1">
          <mxGeometry width="50" height="50" relative="1" as="geometry">
            <mxPoint x="160" y="440" as="sourcePoint" />
            <mxPoint x="160" y="360" as="targetPoint" />
          </mxGeometry>
        </mxCell>
        <mxCell id="q5q8uRjG3jJ6PqbUAPb0-2" value="" style="endArrow=classic;html=1;rounded=0;" parent="1" edge="1">
          <mxGeometry width="50" height="50" relative="1" as="geometry">
            <mxPoint x="160" y="440" as="sourcePoint" />
            <mxPoint x="240" y="440" as="targetPoint" />
          </mxGeometry>
        </mxCell>
        <mxCell id="q5q8uRjG3jJ6PqbUAPb0-3" value="$$y_w$$" style="text;html=1;strokeColor=none;fillColor=none;align=center;verticalAlign=middle;whiteSpace=wrap;rounded=0;fontColor=#2F405F;" parent="1" vertex="1">
          <mxGeometry x="120" y="360" width="60" height="30" as="geometry" />
        </mxCell>
        <mxCell id="q5q8uRjG3jJ6PqbUAPb0-4" value="$$x_w$$" style="text;html=1;strokeColor=none;fillColor=none;align=center;verticalAlign=middle;whiteSpace=wrap;rounded=0;fontFamily=Times New Roman;fontColor=#2F405F;" parent="1" vertex="1">
          <mxGeometry x="210" y="440" width="60" height="30" as="geometry" />
        </mxCell>
        <mxCell id="q5q8uRjG3jJ6PqbUAPb0-8" value="$$y_b$$" style="text;html=1;strokeColor=none;fillColor=none;align=center;verticalAlign=middle;whiteSpace=wrap;rounded=0;" parent="1" vertex="1">
          <mxGeometry x="280" y="290" width="60" height="30" as="geometry" />
        </mxCell>
        <mxCell id="q5q8uRjG3jJ6PqbUAPb0-9" value="$$x_b$$" style="text;html=1;strokeColor=none;fillColor=none;align=center;verticalAlign=middle;whiteSpace=wrap;rounded=0;fontFamily=Helvetica;" parent="1" vertex="1">
          <mxGeometry x="380" y="300" width="60" height="30" as="geometry" />
        </mxCell>
        <mxCell id="q5q8uRjG3jJ6PqbUAPb0-6" value="" style="endArrow=classic;html=1;rounded=0;" parent="1" edge="1">
          <mxGeometry width="50" height="50" relative="1" as="geometry">
            <mxPoint x="360" y="360" as="sourcePoint" />
            <mxPoint x="320" y="290" as="targetPoint" />
          </mxGeometry>
        </mxCell>
        <mxCell id="q5q8uRjG3jJ6PqbUAPb0-12" value="" style="endArrow=classic;html=1;rounded=0;" parent="1" edge="1">
          <mxGeometry width="50" height="50" relative="1" as="geometry">
            <mxPoint x="360" y="360" as="sourcePoint" />
            <mxPoint x="430" y="320" as="targetPoint" />
          </mxGeometry>
        </mxCell>
        <mxCell id="q5q8uRjG3jJ6PqbUAPb0-19" value="" style="endArrow=none;html=1;rounded=0;entryX=0.988;entryY=1.03;entryDx=0;entryDy=0;entryPerimeter=0;" parent="1" edge="1">
          <mxGeometry width="50" height="50" relative="1" as="geometry">
            <mxPoint x="360" y="360" as="sourcePoint" />
            <mxPoint x="468.9200000000001" y="360.9" as="targetPoint" />
          </mxGeometry>
        </mxCell>
        <mxCell id="q5q8uRjG3jJ6PqbUAPb0-26" value="" style="curved=1;endArrow=classic;html=1;rounded=0;fontColor=#2980B9;strokeColor=#2980B9;" parent="1" edge="1">
          <mxGeometry width="50" height="50" relative="1" as="geometry">
            <mxPoint x="460" y="360" as="sourcePoint" />
            <mxPoint x="445" y="312" as="targetPoint" />
            <Array as="points">
              <mxPoint x="460" y="340" />
            </Array>
          </mxGeometry>
        </mxCell>
        <mxCell id="q5q8uRjG3jJ6PqbUAPb0-27" value="$$\theta$$" style="text;html=1;align=center;verticalAlign=middle;resizable=0;points=[];autosize=1;strokeColor=none;fillColor=none;fontColor=#2980B9;" parent="1" vertex="1">
          <mxGeometry x="430" y="318" width="80" height="30" as="geometry" />
        </mxCell>
        <mxCell id="nqfxVOKmGKpuGtbRDlFu-1" value="$$v_{b,x}$$" style="text;html=1;align=center;verticalAlign=middle;resizable=0;points=[];autosize=1;strokeColor=none;fillColor=none;fontColor=#2980B9;" parent="1" vertex="1">
          <mxGeometry x="330" y="310" width="90" height="30" as="geometry" />
        </mxCell>
        <mxCell id="ujk3rQ-hGakSXP_pFLQ8-1" value="" style="endArrow=classic;html=1;strokeWidth=2;rounded=0;strokeColor=#2980B9;" parent="1" edge="1">
          <mxGeometry width="50" height="50" relative="1" as="geometry">
            <mxPoint x="359" y="359" as="sourcePoint" />
            <mxPoint x="412" y="329" as="targetPoint" />
          </mxGeometry>
        </mxCell>
        <mxCell id="ujk3rQ-hGakSXP_pFLQ8-2" value="" style="curved=1;endArrow=classic;html=1;rounded=0;strokeColor=#2980B9;" parent="1" edge="1">
          <mxGeometry width="50" height="50" relative="1" as="geometry">
            <mxPoint x="351" y="347" as="sourcePoint" />
            <mxPoint x="371" y="347" as="targetPoint" />
            <Array as="points">
              <mxPoint x="340" y="373" />
              <mxPoint x="380" y="373" />
            </Array>
          </mxGeometry>
        </mxCell>
        <mxCell id="ujk3rQ-hGakSXP_pFLQ8-3" value="$$\omega_{b,z}$$" style="text;html=1;align=center;verticalAlign=middle;resizable=0;points=[];autosize=1;strokeColor=none;fillColor=none;fontColor=#2980B9;" parent="1" vertex="1">
          <mxGeometry x="270" y="330" width="120" height="30" as="geometry" />
        </mxCell>
      </root>
    </mxGraphModel>
  </diagram>
</mxfile>
